<?xml version="1.0" encoding="utf-8"?>
<!-- Generator: Adobe Illustrator 17.0.0, SVG Export Plug-In . SVG Version: 6.00 Build 0)  -->
<!DOCTYPE svg PUBLIC "-//W3C//DTD SVG 1.1//EN" "http://www.w3.org/Graphics/SVG/1.1/DTD/svg11.dtd">
<svg version="1.1" id="Ebene_1" xmlns="http://www.w3.org/2000/svg" xmlns:xlink="http://www.w3.org/1999/xlink" x="0px" y="0px"
	 width="100px" height="100px" viewBox="0 0 100 100" enable-background="new 0 0 100 100" xml:space="preserve">
<circle fill="#B2B2B2" cx="50" cy="50" r="50"/>
<path d="M77.313,19.932h-2.335c0.06-0.193,0.123-0.387,0.123-0.601c0-1.102-0.898-1.998-2.002-1.998
	c-1.104,0-1.998,0.896-1.998,1.998c0,0.214,0.058,0.407,0.123,0.601h-7.65c0.06-0.193,0.123-0.387,0.123-0.601
	c-0.004-1.102-0.898-1.998-2.004-1.998c-1.102,0-1.998,0.896-1.998,1.998c0,0.214,0.06,0.407,0.123,0.601h-7.654
	c0.06-0.193,0.123-0.387,0.123-0.601c0-1.102-0.894-1.998-1.998-1.998s-1.998,0.896-1.998,1.998c0,0.214,0.058,0.407,0.121,0.601
	h-7.652c0.06-0.193,0.123-0.387,0.123-0.601c0-1.102-0.896-1.998-1.998-1.998c-1.104,0-2,0.896-2,1.998
	c0,0.214,0.058,0.407,0.121,0.601h-7.65c0.062-0.193,0.123-0.387,0.123-0.601c0-1.104-0.894-1.998-1.998-1.998s-2,0.896-2,1.998
	c0,0.214,0.058,0.407,0.121,0.601h-2.337c-3.156,0-5.717,2.563-5.717,5.717V79.7c0,3.156,2.561,5.717,5.717,5.717h47.596
	L83.03,73.245V25.649C83.03,22.495,80.469,19.932,77.313,19.932z M79.912,71.952l-0.647,0.647H74.37
	c-2.291,0-4.158,1.871-4.158,4.158v4.896l-0.647,0.647H23.262c-1.432,0-2.599-1.166-2.599-2.599V40.201h59.248V71.952z"/>
<g>
	<path fill="#FFFFFF" d="M29.043,32.528l-1.121,3.394h-1.44l3.665-10.789h1.681l3.682,10.789h-1.489l-1.152-3.394H29.043z
		 M32.58,31.44l-1.056-3.105c-0.24-0.705-0.4-1.345-0.561-1.969h-0.032c-0.16,0.64-0.336,1.296-0.544,1.953l-1.056,3.121H32.58z"/>
	<path fill="#FFFFFF" d="M43.525,28.175c-0.032,0.56-0.064,1.185-0.064,2.129v4.498c0,1.777-0.353,2.865-1.104,3.538
		c-0.752,0.704-1.841,0.928-2.817,0.928c-0.928,0-1.953-0.224-2.577-0.64l0.353-1.072c0.512,0.32,1.313,0.608,2.273,0.608
		c1.44,0,2.497-0.752,2.497-2.705v-0.864h-0.032c-0.432,0.72-1.265,1.296-2.465,1.296c-1.921,0-3.297-1.632-3.297-3.777
		c0-2.625,1.712-4.114,3.489-4.114c1.345,0,2.081,0.705,2.417,1.345h0.032l0.064-1.168H43.525z M42.068,31.232
		c0-0.24-0.016-0.448-0.08-0.64c-0.256-0.816-0.944-1.489-1.969-1.489c-1.345,0-2.305,1.137-2.305,2.929
		c0,1.521,0.769,2.785,2.289,2.785c0.864,0,1.648-0.544,1.953-1.44c0.08-0.24,0.112-0.512,0.112-0.752V31.232z"/>
	<path fill="#FFFFFF" d="M52.805,31.984c0,2.865-1.985,4.114-3.857,4.114c-2.097,0-3.713-1.537-3.713-3.986
		c0-2.593,1.697-4.114,3.841-4.114C51.3,27.999,52.805,29.615,52.805,31.984z M46.658,32.064c0,1.697,0.977,2.977,2.353,2.977
		c1.345,0,2.353-1.265,2.353-3.009c0-1.313-0.656-2.977-2.321-2.977C47.378,29.055,46.658,30.592,46.658,32.064z"/>
	<path fill="#FFFFFF" d="M54.387,34.481c0.416,0.272,1.152,0.56,1.856,0.56c1.024,0,1.505-0.512,1.505-1.152
		c0-0.672-0.4-1.041-1.44-1.425c-1.393-0.496-2.049-1.264-2.049-2.193c0-1.249,1.008-2.273,2.673-2.273
		c0.784,0,1.473,0.224,1.904,0.48l-0.352,1.024c-0.305-0.192-0.864-0.448-1.585-0.448c-0.832,0-1.296,0.48-1.296,1.056
		c0,0.641,0.464,0.929,1.472,1.313c1.345,0.512,2.033,1.185,2.033,2.337c0,1.36-1.057,2.321-2.897,2.321
		c-0.848,0-1.632-0.208-2.177-0.528L54.387,34.481z"/>
	<path fill="#FFFFFF" d="M62.611,25.95v2.225h2.017v1.072h-2.017v4.178c0,0.96,0.272,1.505,1.057,1.505
		c0.368,0,0.64-0.048,0.816-0.096l0.063,1.056c-0.271,0.112-0.704,0.192-1.248,0.192c-0.656,0-1.185-0.208-1.521-0.592
		c-0.4-0.416-0.545-1.104-0.545-2.017v-4.226h-1.2v-1.072h1.2v-1.857L62.611,25.95z"/>
	<path fill="#FFFFFF" d="M73.125,31.984c0,2.865-1.985,4.114-3.858,4.114c-2.097,0-3.713-1.537-3.713-3.986
		c0-2.593,1.696-4.114,3.842-4.114C71.62,27.999,73.125,29.615,73.125,31.984z M66.979,32.064c0,1.697,0.976,2.977,2.353,2.977
		c1.345,0,2.353-1.265,2.353-3.009c0-1.313-0.656-2.977-2.32-2.977C67.698,29.055,66.979,30.592,66.979,32.064z"/>
</g>
<g>
	<path d="M25.867,67.611v-2.104l1.921-1.738c3.248-2.904,4.826-4.574,4.872-6.313c0-1.213-0.732-2.173-2.447-2.173
		c-1.281,0-2.402,0.64-3.18,1.234l-0.983-2.493c1.121-0.846,2.859-1.532,4.872-1.532c3.362,0,5.215,1.967,5.215,4.666
		c0,2.493-1.807,4.483-3.957,6.404l-1.372,1.144v0.046h5.604v2.859H25.867z"/>
	<path d="M49.537,60.109c0,4.597-1.853,7.754-5.649,7.754c-3.843,0-5.535-3.454-5.558-7.663c0-4.3,1.83-7.708,5.672-7.708
		C47.982,52.492,49.537,56.038,49.537,60.109z M41.829,60.2c-0.023,3.408,0.801,5.032,2.15,5.032c1.35,0,2.082-1.692,2.082-5.078
		c0-3.293-0.709-5.031-2.104-5.031C42.675,55.123,41.806,56.747,41.829,60.2z"/>
	<path d="M55.688,55.832h-0.046l-2.837,1.35l-0.571-2.607l3.934-1.83h2.883v14.867h-3.362V55.832z"/>
	<path d="M73.868,55.604h-5.765l-0.319,2.287c0.319-0.046,0.595-0.046,0.96-0.046c1.418,0,2.859,0.32,3.911,1.075
		c1.121,0.755,1.808,1.989,1.808,3.728c0,2.769-2.379,5.216-6.382,5.216c-1.807,0-3.316-0.412-4.14-0.847l0.617-2.607
		c0.663,0.32,2.013,0.731,3.362,0.731c1.441,0,2.974-0.686,2.974-2.264c0-1.533-1.212-2.471-4.186-2.471
		c-0.823,0-1.396,0.046-2.013,0.138l0.983-7.8h8.188V55.604z"/>
</g>
</svg>
