<?xml version="1.0" encoding="utf-8"?>
<!-- Generator: Adobe Illustrator 17.0.0, SVG Export Plug-In . SVG Version: 6.00 Build 0)  -->
<!DOCTYPE svg PUBLIC "-//W3C//DTD SVG 1.1//EN" "http://www.w3.org/Graphics/SVG/1.1/DTD/svg11.dtd">
<svg version="1.1" id="Ebene_1" xmlns="http://www.w3.org/2000/svg" xmlns:xlink="http://www.w3.org/1999/xlink" x="0px" y="0px"
	 width="100px" height="100px" viewBox="0 0 100 100" enable-background="new 0 0 100 100" xml:space="preserve">
<circle fill="#B2B2B2" cx="50" cy="50" r="50"/>
<path d="M77.313,19.932h-2.335c0.06-0.193,0.123-0.387,0.123-0.601c0-1.102-0.898-1.998-2.002-1.998
	c-1.104,0-1.998,0.896-1.998,1.998c0,0.214,0.058,0.407,0.123,0.601h-7.65c0.06-0.193,0.123-0.387,0.123-0.601
	c-0.004-1.102-0.898-1.998-2.004-1.998c-1.102,0-1.998,0.896-1.998,1.998c0,0.214,0.06,0.407,0.123,0.601h-7.654
	c0.06-0.193,0.123-0.387,0.123-0.601c0-1.102-0.894-1.998-1.998-1.998s-1.998,0.896-1.998,1.998c0,0.214,0.058,0.407,0.121,0.601
	h-7.652c0.06-0.193,0.123-0.387,0.123-0.601c0-1.102-0.896-1.998-1.998-1.998c-1.104,0-2,0.896-2,1.998
	c0,0.214,0.058,0.407,0.121,0.601h-7.65c0.062-0.193,0.123-0.387,0.123-0.601c0-1.104-0.894-1.998-1.998-1.998s-2,0.896-2,1.998
	c0,0.214,0.058,0.407,0.121,0.601h-2.337c-3.156,0-5.717,2.563-5.717,5.717V79.7c0,3.156,2.561,5.717,5.717,5.717h47.596
	L83.03,73.245V25.649C83.03,22.495,80.469,19.932,77.313,19.932z M79.912,71.952l-0.647,0.647H74.37
	c-2.291,0-4.158,1.871-4.158,4.158v4.896l-0.647,0.647H23.262c-1.432,0-2.599-1.166-2.599-2.599V40.201h59.248V71.952z"/>
<g>
	<path fill="#FFFFFF" d="M20.146,27.187c0.743-0.112,1.625-0.196,2.591-0.196c1.751,0,2.998,0.406,3.824,1.177
		c0.84,0.771,1.331,1.863,1.331,3.39c0,1.541-0.476,2.802-1.358,3.67c-0.883,0.883-2.339,1.359-4.174,1.359
		c-0.869,0-1.597-0.042-2.213-0.112V27.187z M21.365,35.536c0.308,0.056,0.756,0.07,1.233,0.07c2.605,0,4.02-1.457,4.02-4.006
		c0.014-2.227-1.247-3.642-3.824-3.642c-0.63,0-1.106,0.056-1.429,0.126V35.536z"/>
	<path fill="#FFFFFF" d="M30.17,33.336c0.028,1.667,1.092,2.353,2.325,2.353c0.882,0,1.415-0.154,1.877-0.35l0.21,0.882
		c-0.434,0.196-1.176,0.42-2.255,0.42c-2.087,0-3.334-1.373-3.334-3.418s1.205-3.656,3.18-3.656c2.213,0,2.802,1.947,2.802,3.193
		c0,0.252-0.028,0.448-0.042,0.575H30.17z M33.784,32.454c0.014-0.784-0.322-2.003-1.709-2.003c-1.247,0-1.793,1.148-1.891,2.003
		H33.784z"/>
	<path fill="#FFFFFF" d="M35.727,35.788l3.068-3.992c0.294-0.364,0.574-0.687,0.882-1.051v-0.028h-3.67v-0.995h5.169l-0.014,0.771
		l-3.025,3.936c-0.28,0.378-0.561,0.714-0.869,1.065v0.028h3.964v0.98h-5.505V35.788z"/>
	<path fill="#FFFFFF" d="M43.078,33.336c0.028,1.667,1.092,2.353,2.325,2.353c0.883,0,1.415-0.154,1.878-0.35l0.21,0.882
		c-0.435,0.196-1.177,0.42-2.256,0.42c-2.087,0-3.333-1.373-3.333-3.418s1.205-3.656,3.18-3.656c2.213,0,2.801,1.947,2.801,3.193
		c0,0.252-0.027,0.448-0.042,0.575H43.078z M46.691,32.454c0.014-0.784-0.322-2.003-1.709-2.003c-1.247,0-1.793,1.148-1.891,2.003
		H46.691z"/>
	<path fill="#FFFFFF" d="M49.405,31.557c0-0.7-0.014-1.274-0.056-1.835h1.078l0.057,1.093h0.042
		c0.378-0.645,1.008-1.247,2.129-1.247c0.925,0,1.625,0.56,1.919,1.358h0.028c0.21-0.378,0.476-0.672,0.756-0.882
		c0.406-0.308,0.854-0.476,1.499-0.476c0.896,0,2.228,0.588,2.228,2.941v3.992H57.88v-3.838c0-1.303-0.477-2.087-1.471-2.087
		c-0.7,0-1.247,0.519-1.457,1.121c-0.056,0.168-0.098,0.392-0.098,0.616v4.188h-1.205V32.44c0-1.079-0.476-1.863-1.414-1.863
		c-0.771,0-1.331,0.616-1.527,1.233c-0.07,0.182-0.098,0.392-0.098,0.602v4.09h-1.205V31.557z"/>
	<path fill="#FFFFFF" d="M61.025,36.502c0.027-0.462,0.056-1.148,0.056-1.751v-8.194H62.3v4.258h0.028
		c0.434-0.756,1.219-1.247,2.311-1.247c1.682,0,2.872,1.4,2.858,3.459c0,2.423-1.527,3.628-3.04,3.628
		c-0.98,0-1.765-0.378-2.27-1.275h-0.042l-0.056,1.121H61.025z M62.3,33.785c0,0.154,0.028,0.308,0.056,0.448
		c0.238,0.854,0.953,1.442,1.85,1.442c1.288,0,2.059-1.05,2.059-2.605c0-1.359-0.7-2.521-2.017-2.521
		c-0.841,0-1.625,0.574-1.877,1.513c-0.028,0.14-0.07,0.308-0.07,0.504V33.785z"/>
	<path fill="#FFFFFF" d="M69.047,31.837c0-0.798-0.014-1.485-0.056-2.115h1.078l0.042,1.331h0.057
		c0.308-0.911,1.05-1.485,1.877-1.485c0.14,0,0.238,0.014,0.35,0.042v1.163c-0.126-0.028-0.252-0.042-0.42-0.042
		c-0.868,0-1.484,0.658-1.653,1.583c-0.027,0.168-0.056,0.364-0.056,0.575v3.614h-1.219V31.837z"/>
	<path fill="#FFFFFF" d="M79.621,33.056c0,2.507-1.737,3.6-3.376,3.6c-1.835,0-3.25-1.345-3.25-3.488c0-2.269,1.485-3.6,3.362-3.6
		C78.304,29.568,79.621,30.983,79.621,33.056z M74.242,33.126c0,1.485,0.854,2.605,2.059,2.605c1.177,0,2.06-1.106,2.06-2.633
		c0-1.148-0.574-2.605-2.031-2.605S74.242,31.837,74.242,33.126z"/>
</g>
<g>
	<path d="M25.867,67.611v-2.104l1.921-1.738c3.248-2.904,4.826-4.574,4.872-6.313c0-1.213-0.732-2.173-2.447-2.173
		c-1.281,0-2.402,0.64-3.18,1.234l-0.983-2.493c1.121-0.846,2.859-1.532,4.872-1.532c3.362,0,5.215,1.967,5.215,4.666
		c0,2.493-1.807,4.483-3.957,6.404l-1.372,1.144v0.046h5.604v2.859H25.867z"/>
	<path d="M49.537,60.109c0,4.597-1.853,7.754-5.649,7.754c-3.843,0-5.535-3.454-5.558-7.663c0-4.3,1.83-7.708,5.672-7.708
		C47.982,52.492,49.537,56.038,49.537,60.109z M41.829,60.2c-0.023,3.408,0.801,5.032,2.15,5.032c1.35,0,2.082-1.692,2.082-5.078
		c0-3.293-0.709-5.031-2.104-5.031C42.675,55.123,41.806,56.747,41.829,60.2z"/>
	<path d="M55.688,55.832h-0.046l-2.837,1.35l-0.571-2.607l3.934-1.83h2.883v14.867h-3.362V55.832z"/>
	<path d="M73.868,55.604h-5.765l-0.319,2.287c0.319-0.046,0.595-0.046,0.96-0.046c1.418,0,2.859,0.32,3.911,1.075
		c1.121,0.755,1.808,1.989,1.808,3.728c0,2.769-2.379,5.216-6.382,5.216c-1.807,0-3.316-0.412-4.14-0.847l0.617-2.607
		c0.663,0.32,2.013,0.731,3.362,0.731c1.441,0,2.974-0.686,2.974-2.264c0-1.533-1.212-2.471-4.186-2.471
		c-0.823,0-1.396,0.046-2.013,0.138l0.983-7.8h8.188V55.604z"/>
</g>
</svg>
