<?xml version="1.0" encoding="utf-8"?>
<!-- Generator: Adobe Illustrator 17.0.0, SVG Export Plug-In . SVG Version: 6.00 Build 0)  -->
<!DOCTYPE svg PUBLIC "-//W3C//DTD SVG 1.1//EN" "http://www.w3.org/Graphics/SVG/1.1/DTD/svg11.dtd">
<svg version="1.1" id="Ebene_1" xmlns="http://www.w3.org/2000/svg" xmlns:xlink="http://www.w3.org/1999/xlink" x="0px" y="0px"
	 width="100px" height="100px" viewBox="0 0 100 100" enable-background="new 0 0 100 100" xml:space="preserve">
<circle fill="#B2B2B2" cx="50" cy="50" r="50"/>
<g>
	<path d="M77.313,19.932h-2.335c0.06-0.193,0.123-0.387,0.123-0.601c0-1.102-0.898-1.998-2.002-1.998
		c-1.104,0-1.998,0.896-1.998,1.998c0,0.214,0.058,0.407,0.123,0.601h-7.65c0.06-0.193,0.123-0.387,0.123-0.601
		c-0.004-1.102-0.898-1.998-2.004-1.998c-1.102,0-1.998,0.896-1.998,1.998c0,0.214,0.06,0.407,0.123,0.601h-7.654
		c0.06-0.193,0.123-0.387,0.123-0.601c0-1.102-0.894-1.998-1.998-1.998s-1.998,0.896-1.998,1.998c0,0.214,0.058,0.407,0.121,0.601
		h-7.652c0.06-0.193,0.123-0.387,0.123-0.601c0-1.102-0.896-1.998-1.998-1.998c-1.104,0-2,0.896-2,1.998
		c0,0.214,0.058,0.407,0.121,0.601h-7.65c0.062-0.193,0.123-0.387,0.123-0.601c0-1.104-0.894-1.998-1.998-1.998s-2,0.896-2,1.998
		c0,0.214,0.058,0.407,0.121,0.601h-2.337c-3.156,0-5.717,2.563-5.717,5.717V79.7c0,3.156,2.561,5.717,5.717,5.717h47.596
		L83.03,73.245V25.649C83.03,22.495,80.469,19.932,77.313,19.932z M79.912,71.952l-0.647,0.647H74.37
		c-2.291,0-4.158,1.871-4.158,4.158v4.896l-0.647,0.647H23.262c-1.432,0-2.599-1.166-2.599-2.599V40.201h59.248V71.952z"/>
	<g>
		<path fill="#FFFFFF" d="M28.639,26.159h1.447v7.501c0,2.977-1.464,3.892-3.393,3.892c-0.532,0-1.181-0.117-1.547-0.266
			l0.216-1.181c0.299,0.117,0.732,0.216,1.214,0.216c1.297,0,2.062-0.582,2.062-2.777V26.159z"/>
		<path fill="#FFFFFF" d="M36.905,37.369l-0.116-1.015h-0.05c-0.449,0.632-1.314,1.198-2.462,1.198c-1.63,0-2.461-1.148-2.461-2.312
			c0-1.946,1.73-3.01,4.84-2.994V32.08c0-0.665-0.183-1.863-1.829-1.863c-0.749,0-1.53,0.233-2.096,0.599l-0.333-0.964
			c0.666-0.433,1.63-0.715,2.645-0.715c2.462,0,3.061,1.68,3.061,3.293v3.011c0,0.698,0.033,1.38,0.133,1.929H36.905z
			 M36.688,33.261c-1.597-0.034-3.409,0.249-3.409,1.813c0,0.948,0.632,1.397,1.38,1.397c1.048,0,1.713-0.666,1.946-1.347
			c0.05-0.15,0.083-0.316,0.083-0.466V33.261z"/>
		<path fill="#FFFFFF" d="M40.464,31.498c0-0.832-0.017-1.514-0.067-2.179h1.297l0.083,1.331h0.034
			c0.399-0.765,1.331-1.514,2.661-1.514c1.114,0,2.844,0.666,2.844,3.426v4.807h-1.463v-4.64c0-1.297-0.482-2.378-1.863-2.378
			c-0.965,0-1.713,0.682-1.963,1.497c-0.066,0.183-0.1,0.433-0.1,0.682v4.84h-1.463V31.498z"/>
		<path fill="#FFFFFF" d="M50.509,33.61c0.033,1.979,1.297,2.794,2.761,2.794c1.048,0,1.68-0.183,2.229-0.416l0.25,1.048
			c-0.516,0.233-1.397,0.499-2.678,0.499c-2.479,0-3.959-1.63-3.959-4.059c0-2.428,1.431-4.341,3.775-4.341
			c2.628,0,3.327,2.312,3.327,3.792c0,0.299-0.034,0.532-0.051,0.682H50.509z M54.8,32.563c0.017-0.932-0.383-2.378-2.029-2.378
			c-1.48,0-2.129,1.364-2.245,2.378H54.8z"/>
		<path fill="#FFFFFF" d="M59.655,27.057c0.017,0.499-0.349,0.898-0.931,0.898c-0.516,0-0.882-0.399-0.882-0.898
			c0-0.516,0.383-0.915,0.915-0.915C59.307,26.143,59.655,26.542,59.655,27.057z M58.025,37.369v-8.05h1.464v8.05H58.025z"/>
		<path fill="#FFFFFF" d="M61.917,31.831c0-0.948-0.017-1.763-0.066-2.511h1.281l0.05,1.58h0.066
			c0.365-1.081,1.247-1.763,2.229-1.763c0.166,0,0.283,0.017,0.416,0.05v1.38c-0.15-0.033-0.3-0.05-0.499-0.05
			c-1.031,0-1.763,0.782-1.963,1.879c-0.033,0.2-0.066,0.433-0.066,0.682v4.291h-1.447V31.831z"/>
		<path fill="#FFFFFF" d="M74.475,33.278c0,2.977-2.063,4.274-4.009,4.274c-2.179,0-3.858-1.597-3.858-4.142
			c0-2.694,1.764-4.274,3.992-4.274C72.911,29.136,74.475,30.816,74.475,33.278z M68.088,33.361c0,1.763,1.015,3.094,2.445,3.094
			c1.396,0,2.444-1.314,2.444-3.127c0-1.364-0.682-3.094-2.411-3.094C68.836,30.234,68.088,31.831,68.088,33.361z"/>
	</g>
</g>
<g>
	<path d="M25.867,67.611v-2.104l1.921-1.738c3.248-2.904,4.826-4.574,4.872-6.313c0-1.213-0.732-2.173-2.447-2.173
		c-1.281,0-2.402,0.64-3.18,1.234l-0.983-2.493c1.121-0.846,2.859-1.532,4.872-1.532c3.362,0,5.215,1.967,5.215,4.666
		c0,2.493-1.807,4.483-3.957,6.404l-1.372,1.144v0.046h5.604v2.859H25.867z"/>
	<path d="M49.537,60.109c0,4.597-1.853,7.754-5.649,7.754c-3.843,0-5.535-3.454-5.558-7.663c0-4.3,1.83-7.708,5.672-7.708
		C47.982,52.492,49.537,56.038,49.537,60.109z M41.829,60.2c-0.023,3.408,0.801,5.032,2.15,5.032c1.35,0,2.082-1.692,2.082-5.078
		c0-3.293-0.709-5.031-2.104-5.031C42.675,55.123,41.806,56.747,41.829,60.2z"/>
	<path d="M55.688,55.832h-0.046l-2.837,1.35l-0.571-2.607l3.934-1.83h2.883v14.867h-3.362V55.832z"/>
	<path d="M73.868,55.604h-5.765l-0.319,2.287c0.319-0.046,0.595-0.046,0.96-0.046c1.418,0,2.859,0.32,3.911,1.075
		c1.121,0.755,1.808,1.989,1.808,3.728c0,2.769-2.379,5.216-6.382,5.216c-1.807,0-3.316-0.412-4.14-0.847l0.617-2.607
		c0.663,0.32,2.013,0.731,3.362,0.731c1.441,0,2.974-0.686,2.974-2.264c0-1.533-1.212-2.471-4.186-2.471
		c-0.823,0-1.396,0.046-2.013,0.138l0.983-7.8h8.188V55.604z"/>
</g>
</svg>
