<?xml version="1.0" encoding="utf-8"?>
<!-- Generator: Adobe Illustrator 17.0.0, SVG Export Plug-In . SVG Version: 6.00 Build 0)  -->
<!DOCTYPE svg PUBLIC "-//W3C//DTD SVG 1.1//EN" "http://www.w3.org/Graphics/SVG/1.1/DTD/svg11.dtd">
<svg version="1.1" id="Ebene_1" xmlns="http://www.w3.org/2000/svg" xmlns:xlink="http://www.w3.org/1999/xlink" x="0px" y="0px"
	 width="100px" height="100px" viewBox="0 0 100 100" enable-background="new 0 0 100 100" xml:space="preserve">
<circle fill="#B2B2B2" cx="50" cy="50" r="50"/>
<path d="M77.313,19.932h-2.335c0.06-0.193,0.123-0.387,0.123-0.601c0-1.102-0.898-1.998-2.002-1.998
	c-1.104,0-1.998,0.896-1.998,1.998c0,0.214,0.058,0.407,0.123,0.601h-7.65c0.06-0.193,0.123-0.387,0.123-0.601
	c-0.004-1.102-0.898-1.998-2.004-1.998c-1.102,0-1.998,0.896-1.998,1.998c0,0.214,0.06,0.407,0.123,0.601h-7.654
	c0.06-0.193,0.123-0.387,0.123-0.601c0-1.102-0.894-1.998-1.998-1.998s-1.998,0.896-1.998,1.998c0,0.214,0.058,0.407,0.121,0.601
	h-7.652c0.06-0.193,0.123-0.387,0.123-0.601c0-1.102-0.896-1.998-1.998-1.998c-1.104,0-2,0.896-2,1.998
	c0,0.214,0.058,0.407,0.121,0.601h-7.65c0.062-0.193,0.123-0.387,0.123-0.601c0-1.104-0.894-1.998-1.998-1.998s-2,0.896-2,1.998
	c0,0.214,0.058,0.407,0.121,0.601h-2.337c-3.156,0-5.717,2.563-5.717,5.717V79.7c0,3.156,2.561,5.717,5.717,5.717h47.596
	L83.03,73.245V25.649C83.03,22.495,80.469,19.932,77.313,19.932z M79.912,71.952l-0.647,0.647H74.37
	c-2.291,0-4.158,1.871-4.158,4.158v4.896l-0.647,0.647H23.262c-1.432,0-2.599-1.166-2.599-2.599V40.201h59.248V71.952z"/>
<g>
	<path fill="#FFFFFF" d="M38.39,31.184c-0.08-1.505-0.176-3.313-0.16-4.658h-0.048c-0.368,1.265-0.816,2.609-1.36,4.098
		l-1.905,5.234H33.86l-1.745-5.138c-0.512-1.521-0.944-2.913-1.249-4.194h-0.032c-0.032,1.345-0.112,3.153-0.208,4.77l-0.288,4.626
		H29.01l0.752-10.789h1.777l1.841,5.218c0.448,1.329,0.816,2.513,1.088,3.633h0.048c0.272-1.088,0.656-2.272,1.137-3.633l1.92-5.218
		h1.777l0.672,10.789h-1.361L38.39,31.184z"/>
	<path fill="#FFFFFF" d="M46.499,35.922l-0.112-0.977h-0.048c-0.432,0.608-1.265,1.153-2.369,1.153
		c-1.569,0-2.369-1.104-2.369-2.225c0-1.873,1.665-2.897,4.658-2.881v-0.16c0-0.641-0.176-1.793-1.761-1.793
		c-0.72,0-1.473,0.224-2.017,0.576l-0.32-0.928c0.64-0.416,1.568-0.688,2.545-0.688c2.369,0,2.945,1.617,2.945,3.169v2.897
		c0,0.672,0.032,1.329,0.128,1.857H46.499z M46.291,31.968c-1.537-0.032-3.281,0.24-3.281,1.745c0,0.913,0.608,1.345,1.329,1.345
		c1.008,0,1.648-0.64,1.873-1.296c0.048-0.145,0.08-0.304,0.08-0.448V31.968z"/>
	<path fill="#FFFFFF" d="M49.921,30.592c0-0.913-0.016-1.697-0.064-2.417h1.232l0.048,1.521h0.064
		c0.352-1.041,1.2-1.697,2.145-1.697c0.16,0,0.272,0.016,0.4,0.048v1.328c-0.145-0.032-0.288-0.048-0.48-0.048
		c-0.992,0-1.696,0.752-1.889,1.809c-0.032,0.192-0.064,0.417-0.064,0.656v4.13h-1.392V30.592z"/>
	<path fill="#FFFFFF" d="M60.515,35.634c-0.336,0.176-1.072,0.416-2.001,0.448l-0.416,0.64c0.593,0.08,1.121,0.496,1.121,1.104
		c0,0.944-0.785,1.296-1.665,1.296c-0.4,0-0.816-0.112-1.089-0.272l0.24-0.688c0.257,0.16,0.576,0.24,0.864,0.24
		c0.353,0,0.688-0.128,0.688-0.512c-0.016-0.416-0.496-0.608-1.248-0.672l0.672-1.168c-1.984-0.256-3.249-1.761-3.249-3.921
		c0-2.385,1.633-4.114,4.161-4.114c0.833,0,1.569,0.208,1.953,0.4l-0.32,1.088c-0.336-0.192-0.864-0.368-1.633-0.368
		c-1.776,0-2.736,1.313-2.736,2.929c0,1.792,1.152,2.897,2.688,2.897c0.801,0,1.329-0.208,1.729-0.384L60.515,35.634z"/>
	<path fill="#FFFFFF" d="M69.076,31.984c0,2.865-1.985,4.114-3.858,4.114c-2.097,0-3.713-1.537-3.713-3.986
		c0-2.593,1.696-4.114,3.842-4.114C67.571,27.999,69.076,29.615,69.076,31.984z M62.93,32.064c0,1.697,0.976,2.977,2.353,2.977
		c1.345,0,2.353-1.265,2.353-3.009c0-1.313-0.656-2.977-2.32-2.977C63.649,29.055,62.93,30.592,62.93,32.064z"/>
</g>
<g>
	<path d="M25.867,67.611v-2.104l1.921-1.738c3.248-2.904,4.826-4.574,4.872-6.313c0-1.213-0.732-2.173-2.447-2.173
		c-1.281,0-2.402,0.64-3.18,1.234l-0.983-2.493c1.121-0.846,2.859-1.532,4.872-1.532c3.362,0,5.215,1.967,5.215,4.666
		c0,2.493-1.807,4.483-3.957,6.404l-1.372,1.144v0.046h5.604v2.859H25.867z"/>
	<path d="M49.537,60.109c0,4.597-1.853,7.754-5.649,7.754c-3.843,0-5.535-3.454-5.558-7.663c0-4.3,1.83-7.708,5.672-7.708
		C47.982,52.492,49.537,56.038,49.537,60.109z M41.829,60.2c-0.023,3.408,0.801,5.032,2.15,5.032c1.35,0,2.082-1.692,2.082-5.078
		c0-3.293-0.709-5.031-2.104-5.031C42.675,55.123,41.806,56.747,41.829,60.2z"/>
	<path d="M55.688,55.832h-0.046l-2.837,1.35l-0.571-2.607l3.934-1.83h2.883v14.867h-3.362V55.832z"/>
	<path d="M73.868,55.604h-5.765l-0.319,2.287c0.319-0.046,0.595-0.046,0.96-0.046c1.418,0,2.859,0.32,3.911,1.075
		c1.121,0.755,1.808,1.989,1.808,3.728c0,2.769-2.379,5.216-6.382,5.216c-1.807,0-3.316-0.412-4.14-0.847l0.617-2.607
		c0.663,0.32,2.013,0.731,3.362,0.731c1.441,0,2.974-0.686,2.974-2.264c0-1.533-1.212-2.471-4.186-2.471
		c-0.823,0-1.396,0.046-2.013,0.138l0.983-7.8h8.188V55.604z"/>
</g>
</svg>
