<?xml version="1.0" encoding="utf-8"?>
<!-- Generator: Adobe Illustrator 17.0.0, SVG Export Plug-In . SVG Version: 6.00 Build 0)  -->
<!DOCTYPE svg PUBLIC "-//W3C//DTD SVG 1.1//EN" "http://www.w3.org/Graphics/SVG/1.1/DTD/svg11.dtd">
<svg version="1.1" id="Ebene_1" xmlns="http://www.w3.org/2000/svg" xmlns:xlink="http://www.w3.org/1999/xlink" x="0px" y="0px"
	 width="100px" height="100px" viewBox="0 0 100 100" enable-background="new 0 0 100 100" xml:space="preserve">
<circle fill="#B2B2B2" cx="50" cy="50" r="50"/>
<path d="M77.313,19.932h-2.335c0.06-0.193,0.123-0.387,0.123-0.601c0-1.102-0.898-1.998-2.002-1.998
	c-1.104,0-1.998,0.896-1.998,1.998c0,0.214,0.058,0.407,0.123,0.601h-7.65c0.06-0.193,0.123-0.387,0.123-0.601
	c-0.004-1.102-0.898-1.998-2.004-1.998c-1.102,0-1.998,0.896-1.998,1.998c0,0.214,0.06,0.407,0.123,0.601h-7.654
	c0.06-0.193,0.123-0.387,0.123-0.601c0-1.102-0.894-1.998-1.998-1.998s-1.998,0.896-1.998,1.998c0,0.214,0.058,0.407,0.121,0.601
	h-7.652c0.06-0.193,0.123-0.387,0.123-0.601c0-1.102-0.896-1.998-1.998-1.998c-1.104,0-2,0.896-2,1.998
	c0,0.214,0.058,0.407,0.121,0.601h-7.65c0.062-0.193,0.123-0.387,0.123-0.601c0-1.104-0.894-1.998-1.998-1.998s-2,0.896-2,1.998
	c0,0.214,0.058,0.407,0.121,0.601h-2.337c-3.156,0-5.717,2.563-5.717,5.717V79.7c0,3.156,2.561,5.717,5.717,5.717h47.596
	L83.03,73.245V25.649C83.03,22.495,80.469,19.932,77.313,19.932z M79.912,71.952l-0.647,0.647H74.37
	c-2.291,0-4.158,1.871-4.158,4.158v4.896l-0.647,0.647H23.262c-1.432,0-2.599-1.166-2.599-2.599V40.201h59.248V71.952z"/>
<g>
	<path fill="#FFFFFF" d="M31.518,31.416c0,3.714-2.257,5.683-5.01,5.683c-2.849,0-4.85-2.209-4.85-5.475
		c0-3.425,2.129-5.666,5.01-5.666C29.613,25.958,31.518,28.214,31.518,31.416z M23.146,31.592c0,2.305,1.249,4.37,3.441,4.37
		c2.209,0,3.457-2.033,3.457-4.482c0-2.145-1.12-4.386-3.441-4.386C24.299,27.094,23.146,29.223,23.146,31.592z"/>
	<path fill="#FFFFFF" d="M39.804,34.809c0,0.8,0.016,1.504,0.064,2.113H38.62l-0.08-1.265h-0.032
		c-0.368,0.625-1.185,1.441-2.561,1.441c-1.216,0-2.673-0.672-2.673-3.394v-4.53h1.408v4.29c0,1.473,0.448,2.465,1.729,2.465
		c0.944,0,1.601-0.656,1.856-1.281c0.08-0.208,0.128-0.464,0.128-0.72v-4.754h1.408V34.809z"/>
	<path fill="#FFFFFF" d="M43.834,26.95v2.225h2.017v1.072h-2.017v4.178c0,0.96,0.272,1.505,1.056,1.505
		c0.368,0,0.641-0.048,0.816-0.096l0.064,1.056c-0.272,0.112-0.704,0.192-1.249,0.192c-0.656,0-1.184-0.208-1.521-0.592
		c-0.4-0.416-0.544-1.104-0.544-2.017v-4.226h-1.201v-1.072h1.201v-1.857L43.834,26.95z"/>
	<path fill="#FFFFFF" d="M53.916,34.809c0,0.8,0.017,1.504,0.064,2.113h-1.249l-0.08-1.265H52.62
		c-0.368,0.625-1.185,1.441-2.562,1.441c-1.217,0-2.673-0.672-2.673-3.394v-4.53h1.408v4.29c0,1.473,0.448,2.465,1.729,2.465
		c0.944,0,1.601-0.656,1.857-1.281c0.08-0.208,0.128-0.464,0.128-0.72v-4.754h1.408V34.809z"/>
	<path fill="#FFFFFF" d="M56.186,36.922c0.032-0.528,0.064-1.313,0.064-2.001v-9.364h1.393v4.866h0.031
		c0.496-0.864,1.393-1.425,2.642-1.425c1.921,0,3.281,1.601,3.265,3.954c0,2.769-1.744,4.146-3.473,4.146
		c-1.121,0-2.018-0.433-2.594-1.457h-0.048l-0.063,1.281H56.186z M57.643,33.816c0,0.176,0.031,0.353,0.063,0.512
		c0.272,0.977,1.089,1.649,2.113,1.649c1.473,0,2.353-1.201,2.353-2.977c0-1.553-0.8-2.881-2.305-2.881
		c-0.961,0-1.857,0.656-2.146,1.729c-0.031,0.16-0.079,0.353-0.079,0.576V33.816z"/>
	<path fill="#FFFFFF" d="M65.354,31.592c0-0.913-0.017-1.697-0.064-2.417h1.232l0.048,1.521h0.064
		c0.352-1.041,1.2-1.697,2.145-1.697c0.16,0,0.272,0.016,0.4,0.048v1.328c-0.145-0.032-0.288-0.048-0.48-0.048
		c-0.992,0-1.696,0.752-1.889,1.809c-0.032,0.192-0.063,0.417-0.063,0.656v4.13h-1.393V31.592z"/>
	<path fill="#FFFFFF" d="M77.437,32.984c0,2.865-1.985,4.114-3.858,4.114c-2.097,0-3.713-1.537-3.713-3.986
		c0-2.593,1.696-4.114,3.842-4.114C75.932,28.999,77.437,30.615,77.437,32.984z M71.29,33.064c0,1.697,0.976,2.977,2.353,2.977
		c1.345,0,2.353-1.265,2.353-3.009c0-1.313-0.656-2.977-2.32-2.977C72.01,30.055,71.29,31.592,71.29,33.064z"/>
</g>
<g>
	<path d="M25.867,67.611v-2.104l1.921-1.738c3.248-2.904,4.826-4.574,4.872-6.313c0-1.213-0.732-2.173-2.447-2.173
		c-1.281,0-2.402,0.64-3.18,1.234l-0.983-2.493c1.121-0.846,2.859-1.532,4.872-1.532c3.362,0,5.215,1.967,5.215,4.666
		c0,2.493-1.807,4.483-3.957,6.404l-1.372,1.144v0.046h5.604v2.859H25.867z"/>
	<path d="M49.537,60.109c0,4.597-1.853,7.754-5.649,7.754c-3.843,0-5.535-3.454-5.558-7.663c0-4.3,1.83-7.708,5.672-7.708
		C47.982,52.492,49.537,56.038,49.537,60.109z M41.829,60.2c-0.023,3.408,0.801,5.032,2.15,5.032c1.35,0,2.082-1.692,2.082-5.078
		c0-3.293-0.709-5.031-2.104-5.031C42.675,55.123,41.806,56.747,41.829,60.2z"/>
	<path d="M55.688,55.832h-0.046l-2.837,1.35l-0.571-2.607l3.934-1.83h2.883v14.867h-3.362V55.832z"/>
	<path d="M73.868,55.604h-5.765l-0.319,2.287c0.319-0.046,0.595-0.046,0.96-0.046c1.418,0,2.859,0.32,3.911,1.075
		c1.121,0.755,1.808,1.989,1.808,3.728c0,2.769-2.379,5.216-6.382,5.216c-1.807,0-3.316-0.412-4.14-0.847l0.617-2.607
		c0.663,0.32,2.013,0.731,3.362,0.731c1.441,0,2.974-0.686,2.974-2.264c0-1.533-1.212-2.471-4.186-2.471
		c-0.823,0-1.396,0.046-2.013,0.138l0.983-7.8h8.188V55.604z"/>
</g>
</svg>
