<?xml version="1.0" encoding="utf-8"?>
<!-- Generator: Adobe Illustrator 17.0.0, SVG Export Plug-In . SVG Version: 6.00 Build 0)  -->
<!DOCTYPE svg PUBLIC "-//W3C//DTD SVG 1.1//EN" "http://www.w3.org/Graphics/SVG/1.1/DTD/svg11.dtd">
<svg version="1.1" id="Ebene_1" xmlns="http://www.w3.org/2000/svg" xmlns:xlink="http://www.w3.org/1999/xlink" x="0px" y="0px"
	 width="100px" height="100px" viewBox="0 0 100 100" enable-background="new 0 0 100 100" xml:space="preserve">
<circle fill="#B2B2B2" cx="50" cy="50" r="50"/>
<path d="M77.313,19.932h-2.335c0.06-0.193,0.123-0.387,0.123-0.601c0-1.102-0.898-1.998-2.002-1.998
	c-1.104,0-1.998,0.896-1.998,1.998c0,0.214,0.058,0.407,0.123,0.601h-7.65c0.06-0.193,0.123-0.387,0.123-0.601
	c-0.004-1.102-0.898-1.998-2.004-1.998c-1.102,0-1.998,0.896-1.998,1.998c0,0.214,0.06,0.407,0.123,0.601h-7.654
	c0.06-0.193,0.123-0.387,0.123-0.601c0-1.102-0.894-1.998-1.998-1.998s-1.998,0.896-1.998,1.998c0,0.214,0.058,0.407,0.121,0.601
	h-7.652c0.06-0.193,0.123-0.387,0.123-0.601c0-1.102-0.896-1.998-1.998-1.998c-1.104,0-2,0.896-2,1.998
	c0,0.214,0.058,0.407,0.121,0.601h-7.65c0.062-0.193,0.123-0.387,0.123-0.601c0-1.104-0.894-1.998-1.998-1.998s-2,0.896-2,1.998
	c0,0.214,0.058,0.407,0.121,0.601h-2.337c-3.156,0-5.717,2.563-5.717,5.717V79.7c0,3.156,2.561,5.717,5.717,5.717h47.596
	L83.03,73.245V25.649C83.03,22.495,80.469,19.932,77.313,19.932z M79.912,71.952l-0.647,0.647H74.37
	c-2.291,0-4.158,1.871-4.158,4.158v4.896l-0.647,0.647H23.262c-1.432,0-2.599-1.166-2.599-2.599V40.201h59.248V71.952z"/>
<g>
	<path fill="#FFFFFF" d="M20.042,34.622c0.585,0.36,1.44,0.66,2.34,0.66c1.335,0,2.115-0.705,2.115-1.725
		c0-0.945-0.54-1.485-1.905-2.01c-1.65-0.585-2.67-1.44-2.67-2.865c0-1.575,1.305-2.745,3.27-2.745c1.035,0,1.785,0.24,2.235,0.495
		l-0.36,1.065c-0.33-0.18-1.005-0.48-1.92-0.48c-1.38,0-1.905,0.825-1.905,1.515c0,0.945,0.615,1.41,2.01,1.95
		c1.71,0.66,2.58,1.485,2.58,2.97c0,1.56-1.155,2.91-3.54,2.91c-0.975,0-2.04-0.285-2.58-0.645L20.042,34.622z"/>
	<path fill="#FFFFFF" d="M28.396,32.822c0.03,1.785,1.17,2.52,2.49,2.52c0.945,0,1.515-0.165,2.01-0.375l0.225,0.945
		c-0.465,0.21-1.26,0.45-2.415,0.45c-2.235,0-3.57-1.47-3.57-3.66s1.29-3.915,3.405-3.915c2.37,0,3,2.085,3,3.42
		c0,0.27-0.03,0.48-0.045,0.615H28.396z M32.266,31.877c0.015-0.84-0.345-2.145-1.83-2.145c-1.335,0-1.92,1.23-2.025,2.145H32.266z"
		/>
	<path fill="#FFFFFF" d="M36.766,26.867v2.085h1.89v1.005h-1.89v3.915c0,0.9,0.255,1.41,0.99,1.41c0.345,0,0.6-0.045,0.765-0.09
		l0.06,0.99c-0.255,0.105-0.66,0.18-1.17,0.18c-0.615,0-1.11-0.195-1.425-0.555c-0.375-0.39-0.51-1.035-0.51-1.89v-3.96h-1.125
		v-1.005h1.125v-1.74L36.766,26.867z"/>
	<path fill="#FFFFFF" d="M40.786,32.822c0.03,1.785,1.17,2.52,2.49,2.52c0.945,0,1.515-0.165,2.01-0.375l0.225,0.945
		c-0.465,0.21-1.26,0.45-2.415,0.45c-2.235,0-3.57-1.47-3.57-3.66s1.29-3.915,3.405-3.915c2.37,0,3,2.085,3,3.42
		c0,0.27-0.03,0.48-0.045,0.615H40.786z M44.656,31.877c0.015-0.84-0.345-2.145-1.831-2.145c-1.335,0-1.92,1.23-2.025,2.145H44.656z
		"/>
	<path fill="#FFFFFF" d="M47.565,30.917c0-0.75-0.015-1.365-0.06-1.965h1.154l0.061,1.17h0.045c0.405-0.69,1.08-1.335,2.28-1.335
		c0.989,0,1.739,0.6,2.055,1.455h0.03c0.225-0.405,0.51-0.72,0.81-0.945c0.435-0.33,0.915-0.51,1.604-0.51
		c0.96,0,2.386,0.63,2.386,3.15v4.275h-1.29v-4.11c0-1.395-0.511-2.235-1.575-2.235c-0.75,0-1.335,0.555-1.56,1.2
		c-0.061,0.18-0.105,0.42-0.105,0.66v4.485h-1.29v-4.35c0-1.155-0.51-1.995-1.515-1.995c-0.825,0-1.425,0.66-1.635,1.32
		c-0.075,0.195-0.105,0.42-0.105,0.645v4.38h-1.29V30.917z"/>
	<path fill="#FFFFFF" d="M60.016,36.212c0.03-0.495,0.06-1.23,0.06-1.875v-8.774h1.306v4.56h0.029
		c0.465-0.81,1.305-1.335,2.476-1.335c1.8,0,3.074,1.5,3.06,3.705c0,2.595-1.635,3.885-3.255,3.885c-1.05,0-1.89-0.405-2.43-1.365
		h-0.045l-0.061,1.2H60.016z M61.381,33.302c0,0.165,0.029,0.33,0.06,0.48c0.255,0.915,1.02,1.545,1.979,1.545
		c1.38,0,2.205-1.125,2.205-2.79c0-1.455-0.75-2.7-2.16-2.7c-0.899,0-1.739,0.615-2.01,1.62c-0.029,0.15-0.074,0.33-0.074,0.54
		V33.302z"/>
	<path fill="#FFFFFF" d="M68.61,31.217c0-0.855-0.015-1.59-0.06-2.265h1.154l0.046,1.425h0.06c0.33-0.975,1.125-1.59,2.01-1.59
		c0.15,0,0.255,0.015,0.375,0.045v1.245c-0.135-0.03-0.27-0.045-0.45-0.045c-0.93,0-1.59,0.705-1.77,1.695
		c-0.03,0.18-0.06,0.39-0.06,0.615v3.87H68.61V31.217z"/>
	<path fill="#FFFFFF" d="M79.936,32.522c0,2.685-1.86,3.855-3.615,3.855c-1.965,0-3.479-1.44-3.479-3.735
		c0-2.43,1.59-3.855,3.6-3.855C78.525,28.787,79.936,30.302,79.936,32.522z M74.176,32.597c0,1.59,0.915,2.79,2.204,2.79
		c1.261,0,2.205-1.185,2.205-2.82c0-1.23-0.614-2.79-2.175-2.79C74.851,29.777,74.176,31.217,74.176,32.597z"/>
</g>
<g>
	<path d="M25.867,67.611v-2.104l1.921-1.738c3.248-2.904,4.826-4.574,4.872-6.313c0-1.213-0.732-2.173-2.447-2.173
		c-1.281,0-2.402,0.64-3.18,1.234l-0.983-2.493c1.121-0.846,2.859-1.532,4.872-1.532c3.362,0,5.215,1.967,5.215,4.666
		c0,2.493-1.807,4.483-3.957,6.404l-1.372,1.144v0.046h5.604v2.859H25.867z"/>
	<path d="M49.537,60.109c0,4.597-1.853,7.754-5.649,7.754c-3.843,0-5.535-3.454-5.558-7.663c0-4.3,1.83-7.708,5.672-7.708
		C47.982,52.492,49.537,56.038,49.537,60.109z M41.829,60.2c-0.023,3.408,0.801,5.032,2.15,5.032c1.35,0,2.082-1.692,2.082-5.078
		c0-3.293-0.709-5.031-2.104-5.031C42.675,55.123,41.806,56.747,41.829,60.2z"/>
	<path d="M55.688,55.832h-0.046l-2.837,1.35l-0.571-2.607l3.934-1.83h2.883v14.867h-3.362V55.832z"/>
	<path d="M73.868,55.604h-5.765l-0.319,2.287c0.319-0.046,0.595-0.046,0.96-0.046c1.418,0,2.859,0.32,3.911,1.075
		c1.121,0.755,1.808,1.989,1.808,3.728c0,2.769-2.379,5.216-6.382,5.216c-1.807,0-3.316-0.412-4.14-0.847l0.617-2.607
		c0.663,0.32,2.013,0.731,3.362,0.731c1.441,0,2.974-0.686,2.974-2.264c0-1.533-1.212-2.471-4.186-2.471
		c-0.823,0-1.396,0.046-2.013,0.138l0.983-7.8h8.188V55.604z"/>
</g>
</svg>
